<svg width="33" height="33" viewBox="0 0 33 33" fill="none" xmlns="http://www.w3.org/2000/svg">
<path d="M16.5 0.000732422C7.4019 0.000732422 0 7.40233 0 16.4998C0 25.5975 7.4019 32.999 16.5 32.999C25.5981 32.999 33 25.5975 33 16.4998C33 7.40233 25.5981 0.000732422 16.5 0.000732422ZM16.5 29.9991C9.0561 29.9991 3 23.9434 3 16.4999C3 9.05643 9.0561 3.00073 16.5 3.00073C23.9439 3.00073 30 9.05643 30 16.4998C30 23.9435 23.9439 29.9991 16.5 29.9991Z" fill="#F69A1B"/>
<path d="M16.5001 13.0007C15.6717 13.0007 15.0001 13.6723 15.0001 14.5007V24.499C15.0001 25.3274 15.6717 25.999 16.5001 25.999C17.3285 25.999 18.0001 25.3274 18.0001 24.499V14.5007C18.0001 13.6724 17.3285 13.0007 16.5001 13.0007Z" fill="#F69A1B"/>
<path d="M16.5001 7.00098C16.1051 7.00098 15.719 7.16098 15.4391 7.43998C15.1601 7.71898 15.0001 8.10598 15.0001 8.50098C15.0001 8.89598 15.1601 9.28198 15.4391 9.56198C15.7181 9.84098 16.1051 10.001 16.5001 10.001C16.8951 10.001 17.2811 9.84098 17.561 9.56198C17.84 9.28198 18.0001 8.89598 18.0001 8.50098C18.0001 8.10598 17.84 7.71898 17.561 7.43998C17.2811 7.16088 16.8951 7.00098 16.5001 7.00098Z" fill="#F69A1B"/>
</svg>
