<svg width="274" height="45" viewBox="0 0 274 45" fill="none" xmlns="http://www.w3.org/2000/svg">
<g clip-path="url(#clip0)">
<path d="M73.6969 20.9945C73.7339 21.7904 73.5893 22.5843 73.2742 23.3155C72.959 24.0466 72.4816 24.6956 71.8785 25.2128C70.3681 26.3374 68.5354 26.9391 66.6556 26.9275V28.3926H63.7718V26.9033C61.8847 26.9144 60.0454 26.3067 58.5329 25.1725C57.9311 24.6631 57.4541 24.0212 57.1387 23.2967C56.8234 22.5722 56.6783 21.7845 56.7146 20.9945C56.6758 20.2031 56.8198 19.4134 57.1352 18.6872C57.4507 17.961 57.9291 17.318 58.5329 16.8085C60.0544 15.6917 61.8878 15.086 63.7718 15.0777V13.6851H66.6316V15.0536C68.5143 15.0478 70.3476 15.6581 71.8544 16.7924C72.4602 17.3052 72.9412 17.9504 73.2605 18.6788C73.5799 19.4071 73.7291 20.1993 73.6969 20.9945ZM66.6316 24.4722C67.735 24.4437 68.8031 24.0756 69.6916 23.4176C70.0281 23.1163 70.2928 22.7428 70.4661 22.3248C70.6395 21.9067 70.717 21.4548 70.6929 21.0026C70.6929 18.9418 69.3578 17.796 66.6877 17.5652L66.6316 24.4722ZM59.7265 20.9945C59.7265 23.0312 61.0803 24.2146 63.7318 24.4722V17.533C62.6337 17.5629 61.5701 17.9248 60.6798 18.5715C60.3448 18.8732 60.0822 19.2472 59.9115 19.6654C59.7409 20.0837 59.6667 20.5353 59.6945 20.9865L59.7265 20.9945ZM87.9396 14.2727L82.204 24.9552C81.7422 25.8874 81.0601 26.6917 80.2174 27.2978C79.4747 27.8185 78.5917 28.0993 77.6861 28.1028C76.9336 28.0941 76.1903 27.9354 75.4992 27.6359L76.2442 25.2611C76.6784 25.4093 77.1317 25.4934 77.59 25.5106C77.9556 25.5179 78.3161 25.4231 78.6314 25.2369C78.9758 25.0082 79.2658 24.7058 79.4805 24.3514L79.5926 24.1985L74.2896 14.2727H77.614L81.1867 21.5178L84.8796 14.2727H87.9396ZM102.03 14.2727V27.7969H98.914V22.2504H92.802V27.7969H89.7179V14.2727H92.834V19.6019H98.946V14.2727H102.03ZM119.453 25.245V30.5902H116.569V27.7969H107.069V30.5902H104.185V25.2369H104.722C105.523 25.2369 106.099 24.6171 106.436 23.4579C106.828 21.8312 107.032 20.1646 107.045 18.491L107.205 14.2647H117.546V25.245H119.453ZM109.84 18.8049C109.802 20.1548 109.665 21.5 109.432 22.83C109.319 23.6994 108.997 24.5282 108.495 25.245H114.51V16.8165H109.896L109.84 18.7888V18.8049ZM131.068 24.9149H124.82L123.626 27.813H120.422L126.422 14.2888H129.498L135.514 27.813H132.246L131.06 24.9149H131.068ZM130.083 22.4999L127.952 17.3237L125.765 22.5402L130.083 22.4999ZM149.797 27.7969V19.6985L145.84 26.3639H144.454L140.449 19.8514V27.7969H137.525V14.2727H140.184L145.223 22.677L150.181 14.2727H152.761V27.7969H149.797ZM166.755 25.2852V27.7969H156.341V14.2727H166.507V16.7843H159.434V19.7146H165.682V22.1296H159.434V25.2611L166.755 25.2852ZM181.895 14.2727V27.7969H178.795V22.2504H172.683V27.7969H169.567V14.2727H172.683V19.6019H178.795V14.2727H181.895ZM195.817 16.8165H191.508V27.7969H188.432V16.8165H184.162V14.2727H195.833V16.8165H195.817ZM196.682 21.1475H202.122V23.5625H196.682V21.1475ZM214.37 20.745C215.116 20.9306 215.786 21.3474 216.284 21.9364C216.729 22.5255 216.958 23.2504 216.933 23.9892C216.956 24.5322 216.844 25.0725 216.608 25.5614C216.371 26.0503 216.018 26.4727 215.579 26.7906C214.425 27.5271 213.067 27.8766 211.702 27.7888H205.069V14.2727H211.342C212.622 14.1993 213.894 14.5134 214.995 15.1743C215.412 15.4592 215.75 15.8472 215.976 16.3011C216.202 16.755 216.308 17.2596 216.284 17.7665C216.295 18.3905 216.123 19.0039 215.788 19.5294C215.44 20.0569 214.951 20.4753 214.378 20.7369L214.37 20.745ZM208.146 19.8756H211.045C211.59 19.9127 212.132 19.7653 212.583 19.457C212.744 19.3001 212.872 19.1124 212.959 18.905C213.047 18.6976 213.092 18.4747 213.092 18.2495C213.092 18.0242 213.047 17.8013 212.959 17.5939C212.872 17.3865 212.744 17.1988 212.583 17.0419C212.135 16.7325 211.596 16.5849 211.053 16.6233H208.154V19.9078L208.146 19.8756ZM211.566 25.5106C213.024 25.5106 213.753 24.931 213.753 23.7718C213.753 22.6448 213.024 22.0894 211.566 22.0894H208.146V25.5106H211.566ZM226.065 28.0545C224.75 28.0764 223.45 27.7664 222.284 27.1529C221.185 26.5649 220.266 25.6876 219.625 24.6148C218.983 23.5421 218.645 22.3143 218.645 21.063C218.645 19.8116 218.983 18.5839 219.625 17.5111C220.266 16.4384 221.185 15.561 222.284 14.9731C223.454 14.38 224.747 14.0711 226.057 14.0711C227.368 14.0711 228.66 14.38 229.83 14.9731C230.916 15.5548 231.826 16.4196 232.465 17.4766C233.095 18.566 233.427 19.8032 233.427 21.063C233.427 22.3227 233.095 23.56 232.465 24.6493C231.826 25.7064 230.916 26.5711 229.83 27.1529C228.672 27.7526 227.383 28.0515 226.081 28.0223L226.065 28.0545ZM226.065 25.3899C226.819 25.3991 227.561 25.2104 228.22 24.8425C228.854 24.4795 229.375 23.9474 229.726 23.3049C230.087 22.6132 230.275 21.8439 230.275 21.063C230.275 20.282 230.087 19.5127 229.726 18.821C229.375 18.1786 228.854 17.6464 228.22 17.2834C227.558 16.9241 226.817 16.736 226.065 16.736C225.313 16.736 224.572 16.9241 223.91 17.2834C223.275 17.644 222.753 18.1768 222.404 18.821C222.044 19.5127 221.855 20.282 221.855 21.063C221.855 21.8439 222.044 22.6132 222.404 23.3049C222.753 23.9492 223.275 24.4819 223.91 24.8425C224.577 25.202 225.325 25.3796 226.081 25.3577L226.065 25.3899ZM247.693 14.3049V27.7888H244.617V16.8165H240.003L239.907 19.6421C239.877 21.2058 239.722 22.7645 239.443 24.3031C239.286 25.3104 238.866 26.2577 238.225 27.0482C237.918 27.3736 237.543 27.6278 237.128 27.7932C236.713 27.9586 236.268 28.0313 235.822 28.0062C235.303 27.9922 234.788 27.922 234.284 27.7969L234.476 25.1484C234.656 25.1983 234.842 25.2227 235.029 25.2208C235.408 25.2271 235.777 25.0978 236.071 24.856C236.364 24.6142 236.563 24.2757 236.631 23.9006C236.995 22.5487 237.183 21.1553 237.192 19.7548L237.376 14.2727L247.693 14.3049ZM260.807 16.8487H254.398V27.821H251.37V14.2727H260.863L260.807 16.8487ZM269.498 24.8988H263.25L262.056 27.7969H258.852L264.852 14.2727H267.928L273.944 27.7969H270.756L269.562 24.8988H269.498ZM268.521 22.4838L266.382 17.3076L264.291 22.5402L268.521 22.4838Z" fill="black"/>
<path fill-rule="evenodd" clip-rule="evenodd" d="M24.338 12.7099V24.1491L34.191 19.1983V7.78325L29.4888 10.1339L24.338 12.7099ZM0.46666 24.6723L11.401 19.1822V6.53549C11.3971 6.48458 11.3971 6.43344 11.401 6.38254H11.4891H11.8336L23.3127 0.0793178C23.423 0.0180034 23.5471 -0.0141602 23.6732 -0.0141602C23.7992 -0.0141602 23.9233 0.0180034 24.0336 0.0793178L35.3125 5.84318H35.4887H35.5528H35.5928V18.4013L46.5672 24.0364H46.6313H46.7355H46.7995V38.5346C46.7955 38.6876 46.7481 38.8362 46.663 38.9631C46.5779 39.09 46.4585 39.1899 46.3189 39.251L34.976 44.8861H35.2484C35.2275 44.8929 35.2051 44.8929 35.1843 44.8861H35.1442H34.7918C34.7682 44.893 34.7432 44.893 34.7197 44.8861H34.6636L23.569 39.396L12.5145 44.9183H12.4584C12.4349 44.9252 12.4099 44.9252 12.3863 44.9183H12.0178H11.9778C11.9572 44.9264 11.9343 44.9264 11.9137 44.9183H11.8496L0.506713 39.2832C0.367119 39.2221 0.247764 39.1222 0.162638 38.9953C0.0775124 38.8684 0.0301428 38.7198 0.0260814 38.5668V25.3888C0.0221493 25.3352 0.0221493 25.2814 0.0260814 25.2278H0.46666V24.6723ZM12.138 20.5346L2.52537 25.3646L12.2101 30.1947L21.8788 25.3646L12.138 20.5346ZM12.939 42.9782L22.792 38.0596V26.6285L18.8668 28.5927L12.939 31.5471V42.9782ZM34.96 30.2108L44.6527 25.3807L35.0401 20.5024L25.2913 25.3807L34.96 30.2108ZM35.761 42.9782L45.622 38.0596V26.6285L41.6568 28.5927L35.729 31.5471V42.9782H35.761ZM23.6491 1.60883L13.8843 6.53549L23.569 11.3655L31.8038 7.2439L33.2537 6.51134L23.6491 1.60883Z" fill="black"/>
</g>
<defs>
<clipPath id="clip0">
<rect width="274" height="45" fill="white"/>
</clipPath>
</defs>
</svg>
