<svg width="231" height="38" viewBox="0 0 231 38" fill="none" xmlns="http://www.w3.org/2000/svg">
<g clip-path="url(#clip0)">
<path d="M62.1313 17.7286C62.1625 18.4007 62.0406 19.0711 61.7749 19.6885C61.5092 20.3059 61.1067 20.8539 60.5983 21.2907C59.3249 22.2403 57.7798 22.7484 56.1951 22.7386V23.9758H53.7638V22.7182C52.1729 22.7276 50.6222 22.2145 49.3471 21.2567C48.8397 20.8265 48.4375 20.2845 48.1717 19.6727C47.9059 19.0609 47.7835 18.3957 47.8141 17.7286C47.7814 17.0603 47.9028 16.3934 48.1687 15.7802C48.4347 15.1669 48.838 14.624 49.3471 14.1937C50.6298 13.2506 52.1754 12.7391 53.7638 12.7322V11.5562H56.1748V12.7118C57.762 12.7069 59.3077 13.2223 60.578 14.1801C61.0887 14.6131 61.4942 15.158 61.7634 15.7731C62.0327 16.3881 62.1585 17.057 62.1313 17.7286ZM56.1748 20.6653C57.105 20.6413 58.0055 20.3304 58.7546 19.7748C59.0383 19.5203 59.2614 19.2049 59.4076 18.8519C59.5537 18.4989 59.6191 18.1173 59.5988 17.7354C59.5988 15.9952 58.4732 15.0276 56.2221 14.8327L56.1748 20.6653ZM50.3534 17.7286C50.3534 19.4485 51.4947 20.4477 53.7301 20.6653V14.8055C52.8043 14.8308 51.9076 15.1364 51.157 15.6824C50.8746 15.9372 50.6532 16.2531 50.5093 16.6062C50.3655 16.9594 50.3029 17.3408 50.3264 17.7218L50.3534 17.7286ZM74.1388 12.0524L69.3034 21.0731C68.914 21.8603 68.339 22.5395 67.6286 23.0513C67.0024 23.491 66.258 23.7282 65.4945 23.7311C64.8601 23.7238 64.2334 23.5897 63.6508 23.3368L64.2789 21.3315C64.6449 21.4566 65.0271 21.5276 65.4135 21.5422C65.7217 21.5483 66.0256 21.4683 66.2914 21.3111C66.5818 21.1179 66.8262 20.8626 67.0073 20.5633L67.1018 20.4341L62.6311 12.0524H65.4337L68.4457 18.1705L71.559 12.0524H74.1388ZM86.0181 12.0524V23.4728H83.391V18.7891H78.2382V23.4728H75.6381V12.0524H78.2652V16.5526H83.418V12.0524H86.0181ZM100.707 21.3179V25.8316H98.2755V23.4728H90.266V25.8316H87.8347V21.3111H88.2872C88.9626 21.3111 89.4488 20.7876 89.7324 19.8087C90.063 18.4351 90.2353 17.0278 90.2457 15.6145L90.3808 12.0456H99.0994V21.3179H100.707ZM92.6026 15.8796C92.5699 17.0195 92.4548 18.1555 92.2582 19.2785C92.1629 20.0127 91.8918 20.7126 91.4681 21.3179H96.5399V14.2005H92.6499L92.6026 15.866V15.8796ZM110.499 21.0392H105.232L104.225 23.4864H101.524L106.582 12.066H109.175L114.247 23.4864H111.492L110.492 21.0392H110.499ZM109.668 18.9998L107.872 14.6288L106.028 19.0338L109.668 18.9998ZM126.289 23.4728V16.6341L122.952 22.2628H121.784L118.407 16.7633V23.4728H115.942V12.0524H118.185L122.432 19.1494L126.613 12.0524H128.787V23.4728H126.289ZM140.586 21.3519V23.4728H131.806V12.0524H140.376V14.1733H134.413V16.6477H139.681V18.6871H134.413V21.3315L140.586 21.3519ZM153.349 12.0524V23.4728H150.736V18.7891H145.583V23.4728H142.956V12.0524H145.583V16.5526H150.736V12.0524H153.349ZM165.087 14.2005H161.454V23.4728H158.86V14.2005H155.261V12.0524H165.1V14.2005H165.087ZM165.816 17.8578H170.402V19.8971H165.816V17.8578ZM180.728 17.5179C181.357 17.6746 181.922 18.0266 182.342 18.524C182.716 19.0214 182.91 19.6335 182.889 20.2574C182.908 20.716 182.814 21.1722 182.614 21.5851C182.415 21.9979 182.117 22.3546 181.748 22.6231C180.774 23.245 179.63 23.5401 178.479 23.466H172.887V12.0524H178.175C179.254 11.9904 180.327 12.2556 181.255 12.8138C181.607 13.0543 181.892 13.382 182.082 13.7652C182.273 14.1485 182.362 14.5746 182.342 15.0027C182.351 15.5296 182.206 16.0476 181.923 16.4914C181.63 16.9368 181.218 17.2901 180.735 17.5111L180.728 17.5179ZM175.48 16.7837H177.925C178.384 16.815 178.841 16.6906 179.222 16.4302C179.357 16.2978 179.465 16.1393 179.539 15.9641C179.612 15.789 179.65 15.6007 179.65 15.4105C179.65 15.2203 179.612 15.0321 179.539 14.8569C179.465 14.6818 179.357 14.5233 179.222 14.3909C178.844 14.1295 178.389 14.0049 177.932 14.0374H175.487V16.8109L175.48 16.7837ZM178.364 21.5422C179.593 21.5422 180.208 21.0528 180.208 20.0739C180.208 19.1222 179.593 18.6531 178.364 18.6531H175.48V21.5422H178.364ZM190.588 23.6903C189.479 23.7089 188.383 23.4471 187.4 22.929C186.473 22.4325 185.698 21.6916 185.158 20.7857C184.617 19.8798 184.332 18.8431 184.332 17.7864C184.332 16.7297 184.617 15.6929 185.158 14.7871C185.698 13.8812 186.473 13.1403 187.4 12.6438C188.387 12.143 189.476 11.8822 190.581 11.8822C191.686 11.8822 192.775 12.143 193.762 12.6438C194.678 13.135 195.445 13.8653 195.984 14.7579C196.514 15.6778 196.794 16.7226 196.794 17.7864C196.794 18.8501 196.514 19.895 195.984 20.8148C195.445 21.7075 194.678 22.4377 193.762 22.929C192.786 23.4354 191.699 23.6878 190.601 23.6631L190.588 23.6903ZM190.588 21.4402C191.223 21.448 191.849 21.2887 192.404 20.978C192.939 20.6715 193.378 20.2221 193.674 19.6796C193.978 19.0955 194.137 18.4458 194.137 17.7864C194.137 17.1269 193.978 16.4773 193.674 15.8932C193.378 15.3507 192.939 14.9013 192.404 14.5948C191.846 14.2914 191.222 14.1325 190.588 14.1325C189.953 14.1325 189.329 14.2914 188.771 14.5948C188.235 14.8993 187.795 15.3492 187.501 15.8932C187.197 16.4773 187.038 17.1269 187.038 17.7864C187.038 18.4458 187.197 19.0955 187.501 19.6796C187.795 20.2236 188.235 20.6735 188.771 20.978C189.333 21.2816 189.964 21.4316 190.601 21.413L190.588 21.4402ZM208.822 12.0796V23.466H206.229V14.2005H202.339L202.258 16.5866C202.232 17.907 202.101 19.2233 201.866 20.5225C201.734 21.3731 201.379 22.173 200.839 22.8406C200.58 23.1153 200.265 23.33 199.915 23.4697C199.565 23.6094 199.189 23.6708 198.813 23.6495C198.376 23.6378 197.941 23.5785 197.517 23.4728L197.679 21.2363C197.831 21.2785 197.987 21.299 198.145 21.2975C198.465 21.3027 198.776 21.1936 199.023 20.9894C199.271 20.7852 199.438 20.4994 199.495 20.1826C199.802 19.041 199.961 17.8643 199.968 16.6817L200.124 12.0524L208.822 12.0796ZM219.877 14.2277H214.475V23.4932H211.922V12.0524H219.924L219.877 14.2277ZM227.205 21.0256H221.937L220.931 23.4728H218.229L223.288 12.0524H225.881L230.953 23.4728H228.265L227.259 21.0256H227.205ZM226.381 18.9862L224.578 14.6152L222.815 19.0338L226.381 18.9862Z" fill="white"/>
<path fill-rule="evenodd" clip-rule="evenodd" d="M20.5185 10.7326V20.3923L28.8252 16.2116V6.57227L24.861 8.55725L20.5185 10.7326ZM0.393409 20.8342L9.6118 16.198V5.51861C9.60849 5.47562 9.60849 5.43244 9.6118 5.38945H9.68609H9.97648L19.6541 0.0667299C19.7471 0.0149533 19.8517 -0.012207 19.958 -0.012207C20.0643 -0.012207 20.1689 0.0149533 20.2619 0.0667299L29.7707 4.93399H29.9193H29.9733H30.0071V15.5386L39.2592 20.2971H39.3132H39.401H39.4551V32.5401C39.4516 32.6693 39.4117 32.7948 39.3399 32.9019C39.2682 33.0091 39.1675 33.0934 39.0499 33.1451L29.4871 37.9036H29.7167C29.6991 37.9093 29.6802 37.9093 29.6626 37.9036H29.6289H29.3317C29.3119 37.9094 29.2908 37.9094 29.2709 37.9036H29.2237L19.8702 33.2674L10.5505 37.9308H10.5032C10.4834 37.9366 10.4623 37.9366 10.4425 37.9308H10.1318H10.098C10.0807 37.9376 10.0614 37.9376 10.044 37.9308H9.98999L0.427176 33.1723C0.309488 33.1206 0.208865 33.0363 0.137098 32.9291C0.0653315 32.822 0.0253958 32.6964 0.0219717 32.5673V21.4392C0.0186567 21.3939 0.0186567 21.3485 0.0219717 21.3032H0.393409V20.8342ZM10.2331 17.3401L2.12903 21.4188L10.2939 25.4975L18.4452 21.4188L10.2331 17.3401ZM10.9085 36.2925L19.2151 32.139V22.486L15.906 24.1447L10.9085 26.6395V36.2925ZM29.4735 25.5111L37.6452 21.4324L29.5411 17.3129L21.3222 21.4324L29.4735 25.5111ZM30.1489 36.2925L38.4623 32.139V22.486L35.1194 24.1447L30.1219 26.6395V36.2925H30.1489ZM19.9377 1.35832L11.7054 5.51861L19.8702 9.59732L26.8127 6.11682L28.0351 5.49821L19.9377 1.35832Z" fill="white"/>
</g>
<defs>
<clipPath id="clip0">
<rect width="231" height="38" fill="white"/>
</clipPath>
</defs>
</svg>
